<?xml version="1.0" encoding="utf-8"?>
<!-- Generator: Adobe Illustrator 25.1.0, SVG Export Plug-In . SVG Version: 6.00 Build 0)  -->
<svg version="1.1" id="Layer_1" xmlns="http://www.w3.org/2000/svg" xmlns:xlink="http://www.w3.org/1999/xlink" x="0px" y="0px"
	 viewBox="0 0 734 170.1" style="enable-background:new 0 0 734 170.1;" xml:space="preserve">
<style type="text/css">
	.st0{clip-path:url(#SVGID_2_);}
	.st1{clip-path:url(#SVGID_4_);fill:#00AA46;}
	.st2{clip-path:url(#SVGID_6_);fill:#00AA46;}
</style>
<g>
	<g>
		<g>
			<defs>
				<rect id="SVGID_1_" width="734" height="170.1"/>
			</defs>
			<clipPath id="SVGID_2_">
				<use xlink:href="#SVGID_1_"  style="overflow:visible;"/>
			</clipPath>
			<g class="st0">
				<g>
					<defs>
						<rect id="SVGID_3_" width="734" height="170.1"/>
					</defs>
					<clipPath id="SVGID_4_">
						<use xlink:href="#SVGID_3_"  style="overflow:visible;"/>
					</clipPath>
					<path class="st1" d="M61.1,46.8c7.7-7.7,17.7-11,28.2-11h7.8v-7.4h-7.9c-12.5,0-24.3,4.1-33.4,13.2c-9.1,9-13.2,20.7-13.2,33.4
						v19.1c0,0.7-0.1,1.6-0.2,2.2c-0.3,1.4-0.9,2.6-1.8,3.5c-0.9,0.9-1.9,1.3-2.7,1.6c-0.7,0.2-1.6,0.4-2.5,0.6
						c-2.1,0.3-7.1,0.4-7.1,0.4v22.9h6.8c8.7,0,16.7-2.6,22.7-8.6c6-5.9,8.6-13.5,8.6-21.7V75c0-6.2,2-12,6.5-16.5
						C77.5,54,83.4,52,89.5,52h1.1v8.8c-2.1,0.1-3.5,0.3-5.4,0.9c-2,0.6-3.9,1.7-5.6,3.3c-2.8,2.8-3.9,6.3-3.9,10v20
						c0,10.7-3.4,20.6-11.2,28.3c-7.7,7.7-17.7,11-28.2,11h-7.8v7.4h7.9c12.5,0,24.3-4.1,33.4-13.2C79,119.4,83,107.7,83,95V75.9
						c0-0.7,0.1-1.6,0.2-2.2c0.3-1.4,0.9-2.6,1.8-3.5s1.9-1.3,2.7-1.6c0.7-0.2,1.6-0.4,2.5-0.6c2.1-0.3,7.1-0.4,7.1-0.4V44.7h-6.8
						c-8.7,0-16.7,2.6-22.7,8.6c-6,5.9-8.6,13.5-8.6,21.7v20c0,6.2-2,12-6.5,16.5c-4.6,4.5-10.4,6.5-16.5,6.5H35v-9
						c2.1-0.1,3.7-0.4,5.4-0.9c2-0.6,3.9-1.5,5.6-3.1c2.8-2.8,3.9-6.3,3.9-10V75C50,64.3,53.4,54.5,61.1,46.8"/>
				</g>
				<g>
					<defs>
						<rect id="SVGID_5_" width="734" height="170.1"/>
					</defs>
					<clipPath id="SVGID_6_">
						<use xlink:href="#SVGID_5_"  style="overflow:visible;"/>
					</clipPath>
					<path class="st2" d="M687.8,92.8h-9.7l4.8-27.3h0.2L687.8,92.8z M674.2,52l-13.6,66h13.2l2.4-13.4H690l2.4,13.4h13.4l-13.4-66
						H674.2z M627.7,52v66h31.2v-12.4H641V52H627.7z M603,119h1.3c10.3,0,18.2-5.5,18.2-17.3v-1.2c0-22.6-24.2-15.9-24.2-26.7v-6.1
						c0-2.6,1.7-4.6,4.7-4.6h0.9c3.1,0,4.6,2.2,4.6,5.2v9.3h13.2v-10c0-11.9-8.2-16.7-17.5-16.7h-1.6c-9.4,0-17.7,5.2-17.7,16.7v6.6
						c0,22.2,24.2,15.3,24.2,27.1v0.3c0,3.5-2.1,5.3-5.4,5.3h-0.4c-3.9,0-5.7-2-5.7-5.3v-4.1h-13.3v4.7
						C584.4,114.2,593.2,119,603,119 M560.4,106.7H560c-4.2,0-6-2.5-6-7.8V71.4c0-5.4,1.8-8.1,6-8.1h0.5c4.1,0,5.9,2.7,5.9,8.1v27.4
						C566.4,104.1,564.5,106.7,560.4,106.7 M559.4,119h1.5c9.7,0,18.9-5.5,18.9-19V70c0-13.8-9.1-19-18.9-19h-1.5
						c-9.7,0-18.9,5.3-18.9,19v30C540.5,113.6,549.8,119,559.4,119 M507.2,89h27V78.6h-27V89z M461.5,52v66h12.6L474,77.8h0.1
						l13.6,40.2h12.6V52h-12.6l0.1,38.9h-0.1L475,52H461.5z M422.2,52v66h33.7v-12.4h-20.4v-15h16V78.3h-16v-14h20.3V52H422.2z
						 M397.3,105.6H391V64.4h6.1c3.6,0,5.7,2.6,5.7,6.9v27.3C402.8,102.4,401.1,105.6,397.3,105.6 M377.7,52v66h20.2
						c9.9,0,18.3-5.5,18.3-18.9v-29c0-12.6-8.3-18.1-18.4-18.1H377.7z M352.3,106.7h-0.5c-4.2,0-6-2.5-6-7.8V71.4
						c0-5.4,1.8-8.1,6-8.1h0.5c4.1,0,5.9,2.7,5.9,8.1v27.4C358.3,104.1,356.4,106.7,352.3,106.7 M351.3,119h1.5
						c9.7,0,18.9-5.5,18.9-19V70c0-13.8-9.1-19-18.9-19h-1.5c-9.7,0-18.9,5.3-18.9,19v30C332.4,113.6,341.7,119,351.3,119
						 M310.4,106.7h-8.2V92.9h7.9c2.5,0,4.3,1.6,4.3,4.7v4.3C314.4,105.4,312.8,106.7,310.4,106.7 M308.9,81.9h-6.7V63.3h7.1
						c2,0,3.7,1.1,3.7,4.4v9.9C312.9,80.8,311,81.9,308.9,81.9 M289,52v66h23.1c9.9,0,15.3-5.2,15.3-14.5v-6.1
						c0-5.3-2.5-9.2-6.9-10.8v-0.1c3.5-1.6,5.3-5.1,5.3-9.8V65.8c0-9.3-5.5-13.8-14.3-13.8C311.5,52,289,52,289,52z M263.2,119h0.7
						c11,0,18.8-5.7,18.8-18.7V52h-13.4v47.9c0,4.5-2.4,6.8-5.5,6.8h-0.5c-3.1,0-5.6-2.3-5.6-6.8V52h-13.3v48.4
						C244.4,113.4,252.1,119,263.2,119 M214.5,64.4h6.7c3.2,0,4.8,2.2,4.8,5.8v14c0,3.5-1.8,5.7-5,5.7h-6.5V64.4z M240.4,118
						l-7.6-19.6c3.6-2.4,6.3-6.4,6.3-13.1V68.8c0-10.1-5.8-16.8-16.1-16.8h-21.8v66h13.3v-16.7h5.8l6.4,16.7H240.4z M179.5,92.8
						h-9.7l4.8-27.3h0.2L179.5,92.8z M165.8,52l-13.6,66h13.2l2.4-13.4h13.8L184,118h13.4L184,52H165.8z M112.8,52l13,66h16.5
						l12.9-66h-13.6l-7.4,49.9H134L126,52H112.8z"/>
				</g>
			</g>
		</g>
	</g>
</g>
</svg>
