<?xml version="1.0" encoding="utf-8"?>
<!-- Generator: Adobe Illustrator 25.1.0, SVG Export Plug-In . SVG Version: 6.00 Build 0)  -->
<svg version="1.1" id="Layer_1" xmlns="http://www.w3.org/2000/svg" xmlns:xlink="http://www.w3.org/1999/xlink" x="0px" y="0px"
	 viewBox="0 0 298 170.1" style="enable-background:new 0 0 298 170.1;" xml:space="preserve">
<style type="text/css">
	.st0{clip-path:url(#SVGID_2_);}
	.st1{clip-path:url(#SVGID_4_);fill:#00AA46;}
	.st2{clip-path:url(#SVGID_6_);fill:#00AA46;}
</style>
<g>
	<g>
		<g>
			<defs>
				<rect id="SVGID_1_" width="298" height="170.1"/>
			</defs>
			<clipPath id="SVGID_2_">
				<use xlink:href="#SVGID_1_"  style="overflow:visible;"/>
			</clipPath>
			<g class="st0">
				<g>
					<defs>
						<rect id="SVGID_3_" width="298" height="170.1"/>
					</defs>
					<clipPath id="SVGID_4_">
						<use xlink:href="#SVGID_3_"  style="overflow:visible;"/>
					</clipPath>
					<path class="st1" d="M61.1,46.8c7.7-7.7,17.7-11,28.2-11h7.8v-7.4h-7.9c-12.5,0-24.3,4.1-33.4,13.2c-9.1,9-13.2,20.7-13.2,33.4
						v19.1c0,0.7-0.1,1.6-0.2,2.2c-0.3,1.4-0.9,2.6-1.8,3.5c-0.9,0.9-1.9,1.3-2.7,1.6c-0.7,0.2-1.6,0.4-2.5,0.6
						c-2.1,0.3-7.1,0.4-7.1,0.4v22.9h6.8c8.7,0,16.7-2.6,22.7-8.6c6-5.9,8.6-13.5,8.6-21.7V75c0-6.2,2-12,6.5-16.5
						C77.5,54,83.4,52,89.5,52h1.1v8.8c-2.1,0.1-3.5,0.3-5.4,0.9c-2,0.6-3.9,1.7-5.6,3.3c-2.8,2.8-3.9,6.3-3.9,10v20
						c0,10.7-3.4,20.6-11.2,28.3c-7.7,7.7-17.7,11-28.2,11h-7.8v7.4h7.9c12.5,0,24.3-4.1,33.4-13.2C79,119.4,83,107.7,83,95V75.9
						c0-0.7,0.1-1.6,0.2-2.2c0.3-1.4,0.9-2.6,1.8-3.5s1.9-1.3,2.7-1.6c0.7-0.2,1.6-0.4,2.5-0.6c2.1-0.3,7.1-0.4,7.1-0.4V44.7h-6.8
						c-8.7,0-16.7,2.6-22.7,8.6c-6,5.9-8.6,13.5-8.6,21.7v20c0,6.2-2,12-6.5,16.5c-4.6,4.5-10.4,6.5-16.5,6.5H35v-9
						c2.1-0.1,3.7-0.4,5.4-0.9c2-0.6,3.9-1.5,5.6-3.1c2.8-2.8,3.9-6.3,3.9-10V75C50,64.3,53.4,54.5,61.1,46.8"/>
				</g>
				<g>
					<defs>
						<rect id="SVGID_5_" width="298" height="170.1"/>
					</defs>
					<clipPath id="SVGID_6_">
						<use xlink:href="#SVGID_5_"  style="overflow:visible;"/>
					</clipPath>
					<path class="st2" d="M246.1,111.5h-0.6c-5.2,0-7.4-3.1-7.4-9.5V68.5c0-6.6,2.2-9.9,7.4-9.9h0.6c4.9,0,7.2,3.3,7.2,9.9V102
						C253.3,108.4,251,111.5,246.1,111.5 M244.8,126.6h1.8c11.8,0,23-6.7,23-23.2V66.8c0-16.8-11-23.2-23-23.2h-1.8
						c-11.8,0-23,6.4-23,23.2v36.6C221.8,119.9,233.1,126.6,244.8,126.6 M195.1,111.5h-10V94.7h9.7c3.1,0,5.3,2,5.3,5.8v5.3
						C200.1,109.9,198.1,111.5,195.1,111.5 M193.3,81.2h-8.2V58.6h8.6c2.4,0,4.5,1.4,4.5,5.4v12.1C198.2,79.9,195.9,81.2,193.3,81.2
						 M169.2,44.8v80.5h28.2c12.1,0,18.6-6.3,18.6-17.7v-7.5c0-6.4-3-11.3-8.4-13.1v-0.1c4.3-2,6.4-6.2,6.4-12V61.6
						c0-11.4-6.7-16.8-17.5-16.8H169.2z M112.8,44.8l15.9,80.5h20.1l15.8-80.5H148l-9.1,60.8h-0.2l-9.8-60.8
						C128.9,44.8,112.8,44.8,112.8,44.8z"/>
				</g>
			</g>
		</g>
	</g>
</g>
</svg>
